<svg width="1440" height="3098" viewBox="0 0 1440 3098" fill="none" xmlns="http://www.w3.org/2000/svg">
<g clip-path="url(#clip0_603_48)">
<rect width="1440" height="3098" fill="#FF0044"/>
<path d="M812.434 3531H1316.42V2129.89H812.434V3531Z" fill="#FF7F00"/>
<path d="M1316.42 2129.89C1316.42 1993.65 1203.73 1883.07 1064.43 1883.07C925.125 1883.07 812.434 1993.45 812.434 2129.89" fill="#FF7F00"/>
<path d="M1306.07 1634.04C1306.07 1496.5 1194.58 1385 1057.04 1385C919.497 1385 808 1496.5 808 1634.04C808 1771.58 919.497 1883.07 1057.04 1883.07C1194.58 1883.07 1306.07 1771.58 1306.07 1634.04Z" fill="#FF7F00"/>
<path d="M222.933 704.896C358.946 704.896 469.335 595.131 469.335 459.448C469.335 323.764 359.144 214 222.933 214" fill="#FF7F00"/>
<path d="M-20 704.896C114.098 704.896 222.931 595.131 222.931 459.448C222.931 323.764 114.293 214 -20 214" fill="#FF7F00"/>
<path d="M719.206 704.896C855.22 704.896 965.608 595.888 965.608 461.14C965.608 326.393 855.417 217.385 719.206 217.385" fill="#FF7F00"/>
<path d="M719.206 704.896C583.192 704.896 472.804 595.888 472.804 461.14C472.804 326.393 582.995 217.385 719.206 217.385" fill="#FF7F00"/>
<rect width="484.125" height="503.215" transform="matrix(0 -1 -1 0 1448 698.125)" fill="#FF7F00"/>
</g>
<defs>
<clipPath id="clip0_603_48">
<rect width="1440" height="3098" fill="white"/>
</clipPath>
</defs>
</svg>
