<svg width="1440" height="1727" viewBox="0 0 1440 1727" fill="none" xmlns="http://www.w3.org/2000/svg">
<g clip-path="url(#clip0_752_913)">
<rect width="1440" height="1727" transform="matrix(-1 0 0 1 1440 0)" fill="#AB96FF"/>
<path d="M1692 330.066C1692 467.514 1578.19 579.066 1437.5 579.066C1296.81 579.066 1183 467.714 1183 330.066" fill="#FFCD00"/>
<path d="M1692 78C1692 217.104 1578.19 330 1437.5 330C1296.81 330 1183 217.306 1183 78" fill="#FFCD00"/>
<path d="M1692 831.766C1692 969.343 1578.97 1081 1439.26 1081C1299.54 1081 1186.51 969.542 1186.51 831.766" fill="#FFCD00"/>
<path d="M1692 831.766C1692 694.188 1578.97 582.531 1439.26 582.531C1299.54 582.531 1186.51 693.989 1186.51 831.766" fill="#FFCD00"/>
<path d="M616 1124H178.481V2340H616V1124Z" fill="#FFCD00"/>
<path d="M248.781 1450.18C246.709 1457.29 237.577 1457.54 231.743 1464.81C214.113 1486.8 222.738 1513.9 215.001 1538.93C242.904 1531.15 293.637 1542.14 299.598 1505.15C308.18 1507.89 307.462 1522.35 313.55 1529.2C326.656 1544 357.392 1549.92 371.428 1532.58C332.871 1505.44 329.658 1448.54 346.019 1407.91C307.166 1427.61 263.831 1421.86 230.263 1394.67C224.555 1390.07 225.359 1382.54 219.271 1382.58C202.444 1413.45 213.14 1443.42 248.781 1450.27V1450.18Z" fill="#AB96FF"/>
<path d="M214.995 1171.15C222.817 1204.21 212.501 1239.68 248.775 1257.82C218.842 1263.36 200.24 1294.6 219.181 1321.28C221.844 1323.31 243.702 1304.62 250.17 1301.41C282.386 1285.51 321.027 1282.64 350.241 1306.4C349.48 1294.98 339.841 1291.26 337.812 1278.66C334.472 1257.65 336.501 1225.73 345.295 1206.29C348.719 1198.72 370.154 1175.25 367.152 1171.11C332.611 1158.64 317.011 1170.73 301.622 1200.58C284.965 1169.59 245.773 1173.44 214.953 1171.11L214.995 1171.15Z" fill="#AB96FF"/>
<path d="M451.79 1403.64C469.082 1442.28 470.097 1471.79 449.761 1509.46C446.252 1515.97 430.525 1531.61 432.639 1534.7C458.343 1556.09 493.011 1534.99 496.097 1505.1C514.234 1541.38 549.663 1531.06 582.766 1538.88C583.57 1505.69 582.217 1470.82 553.214 1450.18C574.184 1446.42 586.614 1431.2 587.332 1410.06C588.77 1366.56 568.984 1398.22 550.551 1407.36C518.716 1423.13 480.624 1426 451.748 1403.64H451.79Z" fill="#AB96FF"/>
<path d="M430.608 1171.15C433.229 1185.57 447.096 1191.11 454.114 1204.68C469.123 1233.81 467.051 1268.05 455.974 1297.9C490.6 1287.59 518.461 1284.84 551.945 1301.28L582.765 1323.27C594.053 1296.25 584.118 1263.74 553.255 1259.81C580.905 1236.01 583.526 1206.2 582.85 1171.07C547.59 1170.6 514.74 1172.93 494.109 1204.89C497.28 1170.56 458.131 1159.95 430.65 1171.11L430.608 1171.15Z" fill="#AB96FF"/>
<path d="M406.222 1315.62C351.853 1309.02 347.921 1392.26 399.204 1395.1C446.132 1397.68 455.56 1321.62 406.222 1315.62Z" fill="#AB96FF"/>
<path d="M29.5911 103.243C31.4751 99.7206 36.5249 99.7206 38.4089 103.243L94.8603 208.784C95.9848 210.887 98.4375 211.903 100.719 211.211L215.265 176.499C219.088 175.341 222.659 178.912 221.501 182.735L186.789 297.281C186.097 299.563 187.113 302.015 189.216 303.14L294.757 359.591C298.279 361.475 298.279 366.525 294.757 368.409L189.216 424.86C187.113 425.985 186.097 428.437 186.789 430.719L221.501 545.265C222.659 549.088 219.088 552.659 215.265 551.501L100.719 516.789C98.4375 516.097 95.9848 517.113 94.8603 519.216L38.4089 624.757C36.5249 628.279 31.4751 628.279 29.5911 624.757L-26.8603 519.216C-27.9848 517.113 -30.4375 516.097 -32.7193 516.789L-147.265 551.501C-151.088 552.659 -154.659 549.088 -153.501 545.265L-118.789 430.719C-118.097 428.437 -119.113 425.985 -121.216 424.86L-226.757 368.409C-230.279 366.525 -230.279 361.475 -226.757 359.591L-121.216 303.14C-119.113 302.015 -118.097 299.563 -118.789 297.281L-153.501 182.735C-154.659 178.912 -151.088 175.341 -147.265 176.499L-32.7193 211.211C-30.4375 211.903 -27.9848 210.887 -26.8603 208.784L29.5911 103.243Z" fill="#FFCD00"/>
</g>
<defs>
<clipPath id="clip0_752_913">
<rect width="1440" height="1727" fill="white" transform="matrix(-1 0 0 1 1440 0)"/>
</clipPath>
</defs>
</svg>
