<svg width="1440" height="1727" viewBox="0 0 1440 1727" fill="none" xmlns="http://www.w3.org/2000/svg">
<g clip-path="url(#clip0_743_56)">
<rect width="1440" height="1727" fill="#FF0044"/>
<path d="M671 612V1049.52H-545V612H671Z" fill="#FF7F00"/>
<g clip-path="url(#clip1_743_56)">
<path d="M265.285 650.245C270.728 650.245 296.018 650.765 317.027 670.694C340.357 692.863 340.317 721.795 340.197 726.517C337.076 726.958 306.022 730.719 282.973 706.749C260.603 683.459 264.765 653.607 265.285 650.245Z" fill="#FF0044"/>
<path d="M428.035 651.485C428.035 656.928 427.515 682.218 407.587 703.227C385.417 726.557 356.485 726.517 351.763 726.397C351.323 723.276 347.561 692.223 371.531 669.173C394.861 646.763 424.714 650.925 428.075 651.445L428.035 651.485Z" fill="#FF0044"/>
<path d="M427.356 815.755C421.913 815.755 396.623 815.235 375.614 795.306C352.284 773.137 352.324 744.205 352.444 739.483C355.565 739.042 386.618 735.281 409.668 759.251C432.078 782.581 427.916 812.434 427.396 815.795L427.356 815.755Z" fill="#FF0044"/>
<path d="M264.645 814.515C264.645 809.072 265.166 783.782 285.094 762.773C307.264 739.443 336.196 739.483 340.918 739.603C341.358 742.724 345.12 773.777 321.149 796.827C297.82 819.237 267.967 815.075 264.605 814.555L264.645 814.515Z" fill="#FF0044"/>
<path d="M452.646 651.046C458.089 651.046 483.379 651.566 504.388 671.495C527.718 693.664 527.678 722.596 527.558 727.318C524.437 727.758 493.384 731.52 470.334 707.55C447.924 684.22 452.086 654.367 452.606 651.006L452.646 651.046Z" fill="#FF0044"/>
<path d="M615.356 652.286C615.356 657.728 614.835 683.019 594.907 704.028C572.737 727.358 543.805 727.318 539.083 727.198C538.643 724.077 534.881 693.023 558.852 669.974C582.181 647.564 612.034 651.726 615.396 652.246L615.356 652.286Z" fill="#FF0044"/>
<path d="M614.715 816.556C609.273 816.556 583.982 816.036 562.973 796.107C539.643 773.938 539.683 745.005 539.803 740.283C542.924 739.843 573.978 736.082 597.027 760.052C619.437 783.382 615.275 813.234 614.755 816.596L614.715 816.556Z" fill="#FF0044"/>
<path d="M452.005 815.316C452.005 809.873 452.525 784.583 472.454 763.574C494.623 740.244 523.555 740.284 528.277 740.404C528.717 743.525 532.479 774.578 508.509 797.628C485.179 820.038 455.326 815.876 451.965 815.356L452.005 815.316Z" fill="#FF0044"/>
<path d="M269.328 834.323C274.77 834.323 300.061 834.843 321.07 854.772C344.4 876.941 344.36 905.874 344.24 910.596C341.119 911.036 310.065 914.797 287.016 890.827C264.606 867.497 268.768 837.645 269.288 834.283L269.328 834.323Z" fill="#FF0044"/>
<path d="M432.037 835.563C432.037 841.006 431.517 866.296 411.589 887.305C389.419 910.635 360.487 910.595 355.765 910.475C355.325 907.354 351.563 876.301 375.533 853.251C398.863 830.841 428.716 835.003 432.077 835.523L432.037 835.563Z" fill="#FF0044"/>
<path d="M431.397 999.833C425.954 999.833 400.664 999.313 379.655 979.384C356.325 957.215 356.365 928.283 356.485 923.561C359.606 923.121 390.659 919.359 413.709 943.329C436.119 966.659 431.957 996.512 431.437 999.873L431.397 999.833Z" fill="#FF0044"/>
<path d="M268.688 998.593C268.688 993.151 269.209 967.86 289.137 946.851C311.307 923.521 340.239 923.561 344.961 923.681C345.401 926.802 349.163 957.856 325.192 980.905C301.863 1003.31 272.01 999.153 268.648 998.633L268.688 998.593Z" fill="#FF0044"/>
<path d="M456.648 835.124C462.091 835.124 487.381 835.644 508.39 855.573C531.72 877.742 531.68 906.674 531.56 911.396C528.439 911.837 497.386 915.598 474.336 891.628C451.926 868.298 456.088 838.445 456.608 835.084L456.648 835.124Z" fill="#FF0044"/>
<path d="M619.358 836.364C619.358 841.806 618.837 867.097 598.909 888.106C576.739 911.436 547.807 911.396 543.085 911.276C542.645 908.155 538.883 877.101 562.854 854.052C586.183 831.642 616.036 835.804 619.398 836.324L619.358 836.364Z" fill="#FF0044"/>
<path d="M618.717 1000.63C613.275 1000.63 587.984 1000.11 566.975 980.185C543.645 958.016 543.685 929.084 543.805 924.362C546.926 923.921 577.98 920.16 601.029 944.13C623.439 967.46 619.277 997.312 618.757 1000.67L618.717 1000.63Z" fill="#FF0044"/>
<path d="M456.009 999.394C456.009 993.951 456.529 968.661 476.457 947.652C498.627 924.322 527.559 924.362 532.281 924.482C532.721 927.603 536.483 958.656 512.513 981.706C489.183 1004.12 459.33 999.954 455.969 999.434L456.009 999.394Z" fill="#FF0044"/>
</g>
<path d="M1378 1371C1378 1252.87 1280.06 1157 1159 1157C1037.94 1157 940 1252.7 940 1371" fill="#FF7F00"/>
<path d="M1378 943C1378 1061.13 1280.06 1157 1159 1157C1037.94 1157 940 1061.3 940 943" fill="#FF7F00"/>
<path d="M213 1702C94.872 1702 -1 1604.06 -1 1483C-1 1361.94 94.7008 1264 213 1264" fill="#FF7F00"/>
<path d="M427 1702C308.872 1702 213 1604.06 213 1483C213 1361.94 308.701 1264 427 1264" fill="#FF7F00"/>
<path d="M1378 1965H940V1370H1378V1965Z" fill="#FF7F00"/>
</g>
<defs>
<clipPath id="clip0_743_56">
<rect width="1440" height="1727" fill="white"/>
</clipPath>
<clipPath id="clip1_743_56">
<rect width="377" height="377" fill="white" transform="translate(251 638)"/>
</clipPath>
</defs>
</svg>
